<svg width="11" height="11" viewBox="0 0 11 11" fill="none" xmlns="http://www.w3.org/2000/svg">
<path d="M5.5 10.0925C5.14525 9.77755 4.7443 9.44988 4.32025 9.10129H4.31475C2.82151 7.87873 1.12916 6.49537 0.381712 4.83777C0.136147 4.31004 0.00600973 3.73588 6.27327e-06 3.15372C-0.00163371 2.35492 0.318336 1.58918 0.887605 1.02954C1.45687 0.469911 2.22739 0.163637 3.02501 0.17994C3.67435 0.180967 4.30971 0.368875 4.8554 0.721279C5.09518 0.87711 5.31213 1.06561 5.5 1.28134C5.68892 1.06645 5.90592 0.878068 6.14515 0.721279C6.6906 0.368806 7.32581 0.180887 7.97499 0.17994C8.77261 0.163637 9.54313 0.469911 10.1124 1.02954C10.6817 1.58918 11.0016 2.35492 11 3.15372C10.9944 3.73681 10.8642 4.31195 10.6183 4.84052C9.87084 6.49813 8.17904 7.88094 6.6858 9.10129L6.6803 9.10569C6.2557 9.45208 5.8553 9.77975 5.50055 10.097L5.5 10.0925ZM3.02501 1.28134C2.51269 1.27492 2.01855 1.47125 1.65001 1.82764C1.29492 2.17687 1.09647 2.65536 1.09996 3.15372C1.10624 3.57804 1.20221 3.99621 1.38161 4.38068C1.73444 5.09588 2.21052 5.74315 2.78796 6.29272C3.33301 6.84342 3.96 7.37649 4.5023 7.82476C4.65245 7.94867 4.80535 8.07368 4.95825 8.19869L5.0545 8.27744C5.20135 8.39749 5.35315 8.52195 5.5 8.64421L5.50715 8.6376L5.51045 8.63484H5.51375L5.5187 8.63099H5.52145H5.5242L5.5341 8.62273L5.55665 8.60456L5.5605 8.60125L5.56655 8.59685H5.56985L5.5748 8.59244L5.94 8.29231L6.0357 8.21356C6.19025 8.08745 6.34315 7.96244 6.4933 7.83853C7.0356 7.39026 7.66315 6.85773 8.20819 6.30428C8.78571 5.75499 9.2618 5.10789 9.61454 4.3928C9.79718 4.005 9.89453 3.58245 9.90001 3.15372C9.90228 2.6569 9.70393 2.18025 9.34999 1.83204C8.98216 1.47404 8.48794 1.2761 7.97499 1.28134C7.34905 1.27602 6.75066 1.53872 6.3305 2.00331L5.5 2.96153L4.6695 2.00331C4.24934 1.53872 3.65095 1.27602 3.02501 1.28134Z" fill="#737373"/>
</svg>
