<svg width="11" height="9" viewBox="0 0 11 9" fill="none" xmlns="http://www.w3.org/2000/svg">
<path d="M5.5 8.14626C4.59793 8.15783 3.70519 7.95725 2.8897 7.55979C2.25758 7.24203 1.68996 6.8032 1.21715 6.26673C0.716337 5.71206 0.322007 5.0647 0.055 4.35887L0 4.17981L0.05775 4.00075C0.324948 3.29554 0.71843 2.64835 1.2177 2.09289C1.69034 1.55647 2.25777 1.11764 2.8897 0.79983C3.70519 0.402386 4.59793 0.20181 5.5 0.213363C6.40207 0.20183 7.2948 0.402405 8.1103 0.79983C8.74243 1.11756 9.31006 1.5564 9.78285 2.09289C10.2846 2.64681 10.6791 3.29436 10.945 4.00075L11 4.17981L10.9423 4.35887C10.0794 6.67288 7.90581 8.18555 5.5 8.14626ZM5.5 1.34663C3.62773 1.28619 1.90928 2.40913 1.16435 4.17981C1.90916 5.9506 3.62769 7.07359 5.5 7.01299C7.37223 7.07327 9.0906 5.95038 9.83565 4.17981C9.0917 2.40827 7.37261 1.28491 5.5 1.34663ZM5.5 5.87971C4.70653 5.88513 4.02015 5.31158 3.86153 4.5106C3.70291 3.70961 4.11635 2.90489 4.84846 2.58964C5.58057 2.27439 6.42688 2.53664 6.8687 3.21568C7.31052 3.89472 7.22445 4.80089 6.66325 5.37881C6.35598 5.6991 5.93712 5.87947 5.5 5.87971Z" fill="#737373"/>
</svg>
