<svg width="39" height="39" viewBox="0 0 39 39" fill="none" xmlns="http://www.w3.org/2000/svg">
<g clip-path="url(#clip0)">
<path d="M24.553 16.9365H24.2594V14.489C24.2594 12.0183 22.1427 10 19.5245 10C16.9062 10 14.7896 12.0183 14.7896 14.489V16.9365H14.447C13.1011 16.9365 12 17.9689 12 19.2564V26.6917C12 27.9676 13.0889 29.0116 14.447 29.0116H24.5653C25.9111 29.0116 27.0122 27.9792 27.0122 26.6917V19.2448C27 17.9689 25.8989 16.9365 24.553 16.9365ZM16.6248 14.489C16.6248 12.9695 17.9217 11.7399 19.5245 11.7399C21.1272 11.7399 22.4241 12.9695 22.4241 14.489V16.9365H16.6248V14.489ZM19.5 24.5574C18.5701 24.5574 17.8238 23.8382 17.8238 22.9683C17.8238 22.0983 18.5701 21.3675 19.5 21.3675C20.4299 21.3675 21.1762 22.0867 21.1762 22.9567C21.1762 23.8266 20.4299 24.5574 19.5 24.5574Z" fill="#737373"/>
</g>
<defs>
<clipPath id="clip0">
<rect width="15" height="19" fill="white" transform="translate(12 10)"/>
</clipPath>
</defs>
</svg>
