<svg width="11" height="13" viewBox="0 0 11 13" fill="none" xmlns="http://www.w3.org/2000/svg">
<path d="M2.02446 7.86631C2.5294 7.86477 3.01524 7.66758 3.38516 7.31404L6.9991 9.43819C6.74879 10.4443 7.25454 11.4869 8.18659 11.8861C9.11864 12.2853 10.1943 11.9201 10.7122 11.0286C11.2301 10.1371 11.0331 8.98973 10.2498 8.33456C9.46639 7.67939 8.3342 7.71517 7.59141 8.41858L3.97748 6.29443C4.01537 6.14541 4.03629 5.99236 4.03983 5.83836L7.59083 3.75103C8.29567 4.41015 9.35301 4.47127 10.1252 3.89752C10.8974 3.32377 11.1732 2.27205 10.7864 1.37664C10.3996 0.48122 9.4559 -0.0130467 8.52441 0.191922C7.59292 0.39689 6.92838 1.24505 6.93155 2.22488C6.93361 2.39595 6.9563 2.5661 6.9991 2.73142L3.71769 4.6596C3.19205 3.82314 2.16343 3.48782 1.26536 3.86018C0.367298 4.23255 -0.147719 5.20791 0.0375204 6.18551C0.22276 7.16312 1.05618 7.86813 2.02446 7.86631Z" fill="#737373"/>
</svg>
