<svg width="86" height="19" viewBox="0 0 86 19" fill="none" xmlns="http://www.w3.org/2000/svg">
<g clip-path="url(#clip0)">
<path d="M0 1.02002H6.07171C6.07171 1.02002 11.5873 10.4601 11.7533 10.714C11.9193 10.9678 11.9401 10.714 11.9401 10.714C11.6869 9.25187 11.4088 8.5984 11.4088 6.26189V1.02002H17.4557V18.5039H11.4047C11.4047 18.5039 6.00116 9.56685 5.8393 9.32239C5.67744 9.07323 5.65254 9.32239 5.65254 9.32239C5.86005 10.5306 6.04681 10.7281 6.04681 12.8248V18.5039H0V1.02002Z" fill="white"/>
<path d="M26.9893 12.176L27.8152 8.62661C27.9937 7.90732 28.114 6.87775 28.114 6.87775C28.1389 6.71791 28.334 6.71791 28.3672 6.88715C28.4045 7.13162 28.5041 7.87441 28.6867 8.61721L29.5292 12.1807H26.9893V12.176ZM25.8605 16.3272H30.6415L31.2184 18.5086H37.9126L31.7039 1.02002H24.7067L18.6558 18.5039H25.3542L25.8605 16.3272Z" fill="white"/>
<path d="M53.8487 1.02002L47.1046 18.5039H41.7467L35.0068 1.02002H41.6098L43.9173 8.9745C44.1704 9.83012 44.3572 11.7153 44.3572 11.7153C44.3987 11.8658 44.5564 11.8517 44.5813 11.7153C44.5813 11.7153 44.7681 9.83012 45.0212 8.9745L47.2457 1.02002H53.8487Z" fill="white"/>
<path d="M55.1602 1.02002H66.8678V5.79647H61.5348V7.4654H66.4071V12.0115H61.5348V13.7274H67.0546V18.5039H55.1643V1.02002H55.1602Z" fill="white"/>
<path d="M75.8158 5.73738H76.3014C77.3888 5.73738 78.3309 5.89723 78.3309 7.24178C78.3309 8.53932 77.2933 8.70386 76.2516 8.70386H75.8117V5.73738H75.8158ZM69.6321 18.4495H75.82V12.8362C75.82 12.8362 75.8615 12.6388 75.9777 12.8362L78.7085 18.4495H86.0045L82.2154 12.7657C81.8668 12.258 81.2858 11.8208 81.153 11.722C81.0243 11.6233 81.153 11.581 81.153 11.581C83.5061 10.7912 84.5229 9.68172 84.5229 7.03492C84.5229 2.62987 81.1986 0.960938 77.2726 0.960938H69.6321V18.4495Z" fill="white"/>
</g>
<defs>
<clipPath id="clip0">
<rect width="86" height="17.545" fill="white" transform="translate(0 0.960938)"/>
</clipPath>
</defs>
</svg>
