<svg width="215" height="43" viewBox="0 0 215 43" fill="none" xmlns="http://www.w3.org/2000/svg">
<g clip-path="url(#clip0)">
<rect width="214.391" height="42.4341" fill="white"/>
<path d="M0 0.143433H15.1363C15.1363 0.143433 28.8861 22.9751 29.3 23.5891C29.7138 24.2031 29.7656 23.5891 29.7656 23.5891C29.1344 20.0529 28.4413 18.4724 28.4413 12.8214V0.143433H43.5154V42.4297H28.4309C28.4309 42.4297 14.9604 20.8147 14.5569 20.2235C14.1534 19.6208 14.0913 20.2235 14.0913 20.2235C14.6086 23.1456 15.0742 23.6232 15.0742 28.6944V42.4297H0V0.143433Z" fill="#1DCE61"/>
<path d="M67.2822 27.1249L69.341 18.5403C69.7859 16.8006 70.0859 14.3105 70.0859 14.3105C70.148 13.9239 70.6343 13.9239 70.7171 14.3333C70.8102 14.9245 71.0585 16.721 71.5137 18.5175L73.6139 27.1363H67.2822V27.1249ZM64.4681 37.1649H76.3867L77.8248 42.4407H94.5129L79.0353 0.143066H61.5918L46.5073 42.4294H63.2058L64.4681 37.1649Z" fill="#1DCE61"/>
<path d="M134.24 0.143066L117.428 42.4294H104.071L87.269 0.143066H103.73L109.482 19.3817C110.113 21.4511 110.579 26.0106 110.579 26.0106C110.682 26.3744 111.075 26.3403 111.137 26.0106C111.137 26.0106 111.603 21.4511 112.234 19.3817L117.78 0.143066H134.24Z" fill="#1DCE61"/>
<path d="M137.509 0.143066H166.695V11.6953H153.401V15.7318H165.547V26.7269H153.401V30.8771H167.161V42.4294H137.52V0.143066H137.509Z" fill="#1DCE61"/>
<path d="M189.002 11.5523H190.213C192.924 11.5523 195.272 11.9389 195.272 15.1908C195.272 18.329 192.686 18.7269 190.089 18.7269H188.992V11.5523H189.002ZM173.587 42.2977H189.013V28.7215C189.013 28.7215 189.116 28.2439 189.406 28.7215L196.214 42.2977H214.402L204.956 28.5509C204.087 27.3229 202.639 26.2655 202.307 26.0267C201.987 25.7879 202.307 25.6856 202.307 25.6856C208.174 23.7754 210.708 21.092 210.708 14.6905C210.708 4.03647 202.421 0 192.634 0H173.587V42.2977Z" fill="#1DCE61"/>
</g>
<defs>
<clipPath id="clip0">
<rect width="214.391" height="42.4341" fill="white"/>
</clipPath>
</defs>
</svg>
