<svg width="40" height="40" viewBox="0 0 40 40" fill="none" xmlns="http://www.w3.org/2000/svg">
<path d="M26.7115 20.0067C26.7115 18.6283 27.6885 17.4639 29 17.1963V16.2729L26.6178 13.8907C26.0959 14.4126 25.3866 14.7338 24.597 14.7338C23.0178 14.7338 21.7197 13.4491 21.7197 11.8565C21.7197 11.5487 21.7732 11.2677 21.8669 11H17.7985C17.8788 11.2677 17.9457 11.5487 17.9457 11.8565C17.9457 13.4357 16.661 14.7338 15.0684 14.7338C14.3591 14.7338 13.7301 14.4662 13.2349 14.0513L11 16.2729V17.2097C12.2714 17.5041 13.2216 18.6416 13.2216 19.9933C13.2216 21.3584 12.2714 22.4825 11 22.777V23.7138L13.4223 26.1361C13.8907 25.8015 14.4528 25.6141 15.0684 25.6141C16.6476 25.6141 17.9457 26.8989 17.9457 28.4914C17.9457 28.6654 17.919 28.8394 17.8922 29H21.7732C21.7465 28.8394 21.7197 28.6654 21.7197 28.4914C21.7197 26.9123 23.0045 25.6141 24.597 25.6141C25.3063 25.6141 25.9353 25.8818 26.4305 26.2967L29 23.7271V22.8171C27.7019 22.5361 26.7115 21.3851 26.7115 20.0067ZM20.0067 22.8706C18.4275 22.8706 17.1294 21.5859 17.1294 19.9933C17.1294 18.4141 18.4141 17.116 20.0067 17.116C21.5859 17.116 22.884 18.4007 22.884 19.9933C22.8706 21.5859 21.5859 22.8706 20.0067 22.8706Z" fill="#D7D7D7"/>
</svg>
